<mxfile host="app.diagrams.net" agent="Mozilla/5.0 (Windows NT 10.0; Win64; x64) AppleWebKit/537.36 (KHTML, like Gecko) Chrome/131.0.0.0 Safari/537.36" version="25.0.3">
  <diagram name="페이지-1" id="lWVUT9HNAvQso-qhvlOw">
    <mxGraphModel dx="1149" dy="651" grid="1" gridSize="10" guides="1" tooltips="1" connect="1" arrows="1" fold="1" page="1" pageScale="1" pageWidth="827" pageHeight="1169" math="0" shadow="0">
      <root>
        <mxCell id="0" />
        <mxCell id="1" parent="0" />
        <mxCell id="IqUyDzDAsVlIOU5jjDd6-1" value="" style="rounded=0;whiteSpace=wrap;html=1;fillColor=#fff2cc;strokeColor=#d6b656;" parent="1" vertex="1">
          <mxGeometry x="160" y="600" width="80" height="120" as="geometry" />
        </mxCell>
        <mxCell id="IqUyDzDAsVlIOU5jjDd6-2" value="" style="rounded=0;whiteSpace=wrap;html=1;fillColor=#fff2cc;strokeColor=#d6b656;" parent="1" vertex="1">
          <mxGeometry x="160" y="720" width="80" height="40" as="geometry" />
        </mxCell>
        <mxCell id="IqUyDzDAsVlIOU5jjDd6-4" value="" style="rounded=0;whiteSpace=wrap;html=1;fillColor=#fff2cc;strokeColor=#d6b656;" parent="1" vertex="1">
          <mxGeometry x="160" y="760" width="80" height="120" as="geometry" />
        </mxCell>
        <mxCell id="IqUyDzDAsVlIOU5jjDd6-5" value="" style="rounded=0;whiteSpace=wrap;html=1;fillColor=#fff2cc;strokeColor=#d6b656;" parent="1" vertex="1">
          <mxGeometry x="160" y="880" width="80" height="120" as="geometry" />
        </mxCell>
        <mxCell id="IqUyDzDAsVlIOU5jjDd6-6" value="" style="rounded=0;whiteSpace=wrap;html=1;fillColor=#fff2cc;strokeColor=#d6b656;" parent="1" vertex="1">
          <mxGeometry x="160" y="1000" width="80" height="120" as="geometry" />
        </mxCell>
        <mxCell id="IqUyDzDAsVlIOU5jjDd6-7" value="" style="rounded=0;whiteSpace=wrap;html=1;fillColor=#fff2cc;strokeColor=#d6b656;" parent="1" vertex="1">
          <mxGeometry x="160" y="1120" width="80" height="40" as="geometry" />
        </mxCell>
        <mxCell id="IqUyDzDAsVlIOU5jjDd6-8" value="" style="rounded=0;whiteSpace=wrap;html=1;fillColor=#fff2cc;strokeColor=#d6b656;" parent="1" vertex="1">
          <mxGeometry x="320" y="600" width="80" height="120" as="geometry" />
        </mxCell>
        <mxCell id="IqUyDzDAsVlIOU5jjDd6-9" value="" style="rounded=0;whiteSpace=wrap;html=1;fillColor=#fff2cc;strokeColor=#d6b656;" parent="1" vertex="1">
          <mxGeometry x="320" y="720" width="80" height="120" as="geometry" />
        </mxCell>
        <mxCell id="IqUyDzDAsVlIOU5jjDd6-10" value="" style="rounded=0;whiteSpace=wrap;html=1;fillColor=#fff2cc;strokeColor=#d6b656;" parent="1" vertex="1">
          <mxGeometry x="320" y="840" width="80" height="120" as="geometry" />
        </mxCell>
        <mxCell id="IqUyDzDAsVlIOU5jjDd6-11" value="" style="rounded=0;whiteSpace=wrap;html=1;fillColor=#fff2cc;strokeColor=#d6b656;" parent="1" vertex="1">
          <mxGeometry x="320" y="960" width="80" height="120" as="geometry" />
        </mxCell>
        <mxCell id="IqUyDzDAsVlIOU5jjDd6-12" value="" style="rounded=0;whiteSpace=wrap;html=1;fillColor=#fff2cc;strokeColor=#d6b656;" parent="1" vertex="1">
          <mxGeometry x="400" y="600" width="80" height="120" as="geometry" />
        </mxCell>
        <mxCell id="IqUyDzDAsVlIOU5jjDd6-13" value="" style="rounded=0;whiteSpace=wrap;html=1;fillColor=#fff2cc;strokeColor=#d6b656;" parent="1" vertex="1">
          <mxGeometry x="400" y="720" width="80" height="120" as="geometry" />
        </mxCell>
        <mxCell id="IqUyDzDAsVlIOU5jjDd6-14" value="" style="rounded=0;whiteSpace=wrap;html=1;fillColor=#fff2cc;strokeColor=#d6b656;" parent="1" vertex="1">
          <mxGeometry x="400" y="840" width="80" height="120" as="geometry" />
        </mxCell>
        <mxCell id="IqUyDzDAsVlIOU5jjDd6-15" value="" style="rounded=0;whiteSpace=wrap;html=1;fillColor=#fff2cc;strokeColor=#d6b656;" parent="1" vertex="1">
          <mxGeometry x="400" y="960" width="80" height="120" as="geometry" />
        </mxCell>
        <mxCell id="IqUyDzDAsVlIOU5jjDd6-16" value="" style="rounded=0;whiteSpace=wrap;html=1;fillColor=#fff2cc;strokeColor=#d6b656;" parent="1" vertex="1">
          <mxGeometry x="560" y="600" width="80" height="120" as="geometry" />
        </mxCell>
        <mxCell id="IqUyDzDAsVlIOU5jjDd6-17" value="" style="rounded=0;whiteSpace=wrap;html=1;fillColor=#fff2cc;strokeColor=#d6b656;" parent="1" vertex="1">
          <mxGeometry x="560" y="720" width="80" height="120" as="geometry" />
        </mxCell>
        <mxCell id="IqUyDzDAsVlIOU5jjDd6-18" value="" style="rounded=0;whiteSpace=wrap;html=1;fillColor=#fff2cc;strokeColor=#d6b656;" parent="1" vertex="1">
          <mxGeometry x="560" y="840" width="80" height="120" as="geometry" />
        </mxCell>
        <mxCell id="IqUyDzDAsVlIOU5jjDd6-19" value="" style="rounded=0;whiteSpace=wrap;html=1;fillColor=#fff2cc;strokeColor=#d6b656;" parent="1" vertex="1">
          <mxGeometry x="560" y="960" width="80" height="120" as="geometry" />
        </mxCell>
        <mxCell id="IqUyDzDAsVlIOU5jjDd6-20" value="" style="rounded=0;whiteSpace=wrap;html=1;fillColor=#dae8fc;strokeColor=#6c8ebf;" parent="1" vertex="1">
          <mxGeometry x="160" y="560" width="480" height="40" as="geometry" />
        </mxCell>
        <mxCell id="IqUyDzDAsVlIOU5jjDd6-21" value="" style="rounded=0;whiteSpace=wrap;html=1;fillColor=#dae8fc;strokeColor=#6c8ebf;" parent="1" vertex="1">
          <mxGeometry x="120" y="600" width="40" height="560" as="geometry" />
        </mxCell>
        <mxCell id="IqUyDzDAsVlIOU5jjDd6-22" value="" style="rounded=0;whiteSpace=wrap;html=1;fillColor=#f5f5f5;strokeColor=#666666;fontColor=#333333;" parent="1" vertex="1">
          <mxGeometry x="160" y="1160" width="480" height="40" as="geometry" />
        </mxCell>
        <mxCell id="IqUyDzDAsVlIOU5jjDd6-23" value="" style="rounded=0;whiteSpace=wrap;html=1;fillColor=#d5e8d4;strokeColor=#82b366;" parent="1" vertex="1">
          <mxGeometry x="640" y="1080" width="30" height="80" as="geometry" />
        </mxCell>
        <mxCell id="IqUyDzDAsVlIOU5jjDd6-24" value="창" style="text;html=1;align=center;verticalAlign=middle;whiteSpace=wrap;rounded=0;" parent="1" vertex="1">
          <mxGeometry x="370" y="565" width="60" height="30" as="geometry" />
        </mxCell>
        <mxCell id="IqUyDzDAsVlIOU5jjDd6-25" value="창" style="text;html=1;align=center;verticalAlign=middle;whiteSpace=wrap;rounded=0;" parent="1" vertex="1">
          <mxGeometry x="110" y="865" width="60" height="30" as="geometry" />
        </mxCell>
        <mxCell id="IqUyDzDAsVlIOU5jjDd6-26" value="이지은" style="text;html=1;align=center;verticalAlign=middle;whiteSpace=wrap;rounded=0;" parent="1" vertex="1">
          <mxGeometry x="170" y="645" width="60" height="30" as="geometry" />
        </mxCell>
        <mxCell id="IqUyDzDAsVlIOU5jjDd6-27" value="지혜정" style="text;html=1;align=center;verticalAlign=middle;whiteSpace=wrap;rounded=0;" parent="1" vertex="1">
          <mxGeometry x="170" y="805" width="60" height="30" as="geometry" />
        </mxCell>
        <mxCell id="IqUyDzDAsVlIOU5jjDd6-28" value="김준수" style="text;html=1;align=center;verticalAlign=middle;whiteSpace=wrap;rounded=0;" parent="1" vertex="1">
          <mxGeometry x="170" y="925" width="60" height="30" as="geometry" />
        </mxCell>
        <mxCell id="IqUyDzDAsVlIOU5jjDd6-29" value="신명근" style="text;html=1;align=center;verticalAlign=middle;whiteSpace=wrap;rounded=0;" parent="1" vertex="1">
          <mxGeometry x="170" y="1050" width="60" height="30" as="geometry" />
        </mxCell>
        <mxCell id="IqUyDzDAsVlIOU5jjDd6-30" value="양소영" style="text;html=1;align=center;verticalAlign=middle;whiteSpace=wrap;rounded=0;" parent="1" vertex="1">
          <mxGeometry x="330" y="1005" width="60" height="30" as="geometry" />
        </mxCell>
        <mxCell id="IqUyDzDAsVlIOU5jjDd6-31" value="강현준" style="text;html=1;align=center;verticalAlign=middle;whiteSpace=wrap;rounded=0;" parent="1" vertex="1">
          <mxGeometry x="330" y="885" width="60" height="30" as="geometry" />
        </mxCell>
        <mxCell id="IqUyDzDAsVlIOU5jjDd6-32" value="정인성" style="text;html=1;align=center;verticalAlign=middle;whiteSpace=wrap;rounded=0;" parent="1" vertex="1">
          <mxGeometry x="330" y="765" width="60" height="30" as="geometry" />
        </mxCell>
        <mxCell id="IqUyDzDAsVlIOU5jjDd6-33" value="보조책상" style="text;html=1;align=center;verticalAlign=middle;whiteSpace=wrap;rounded=0;" parent="1" vertex="1">
          <mxGeometry x="170" y="725" width="60" height="30" as="geometry" />
        </mxCell>
        <mxCell id="IqUyDzDAsVlIOU5jjDd6-34" value="보조책상" style="text;html=1;align=center;verticalAlign=middle;whiteSpace=wrap;rounded=0;" parent="1" vertex="1">
          <mxGeometry x="170" y="1125" width="60" height="30" as="geometry" />
        </mxCell>
        <mxCell id="IqUyDzDAsVlIOU5jjDd6-35" value="보조책상" style="text;html=1;align=center;verticalAlign=middle;whiteSpace=wrap;rounded=0;" parent="1" vertex="1">
          <mxGeometry x="330" y="645" width="60" height="30" as="geometry" />
        </mxCell>
        <mxCell id="IqUyDzDAsVlIOU5jjDd6-36" value="이동준" style="text;html=1;align=center;verticalAlign=middle;whiteSpace=wrap;rounded=0;" parent="1" vertex="1">
          <mxGeometry x="410" y="645" width="60" height="30" as="geometry" />
        </mxCell>
        <mxCell id="IqUyDzDAsVlIOU5jjDd6-37" value="" style="rounded=0;whiteSpace=wrap;html=1;fillColor=#f5f5f5;strokeColor=#666666;fontColor=#333333;" parent="1" vertex="1">
          <mxGeometry x="280" y="600" width="40" height="80" as="geometry" />
        </mxCell>
        <mxCell id="IqUyDzDAsVlIOU5jjDd6-38" value="벽" style="text;html=1;align=center;verticalAlign=middle;whiteSpace=wrap;rounded=0;" parent="1" vertex="1">
          <mxGeometry x="270" y="625" width="60" height="30" as="geometry" />
        </mxCell>
        <mxCell id="IqUyDzDAsVlIOU5jjDd6-39" value="벽" style="text;html=1;align=center;verticalAlign=middle;whiteSpace=wrap;rounded=0;" parent="1" vertex="1">
          <mxGeometry x="370" y="1165" width="60" height="30" as="geometry" />
        </mxCell>
        <mxCell id="IqUyDzDAsVlIOU5jjDd6-40" value="문" style="text;html=1;align=center;verticalAlign=middle;whiteSpace=wrap;rounded=0;" parent="1" vertex="1">
          <mxGeometry x="625" y="1105" width="60" height="30" as="geometry" />
        </mxCell>
        <mxCell id="IqUyDzDAsVlIOU5jjDd6-41" value="천형주" style="text;html=1;align=center;verticalAlign=middle;whiteSpace=wrap;rounded=0;" parent="1" vertex="1">
          <mxGeometry x="410" y="765" width="60" height="30" as="geometry" />
        </mxCell>
        <mxCell id="IqUyDzDAsVlIOU5jjDd6-42" value="손서영" style="text;html=1;align=center;verticalAlign=middle;whiteSpace=wrap;rounded=0;" parent="1" vertex="1">
          <mxGeometry x="410" y="1005" width="60" height="30" as="geometry" />
        </mxCell>
        <mxCell id="IqUyDzDAsVlIOU5jjDd6-43" value="임송미" style="text;html=1;align=center;verticalAlign=middle;whiteSpace=wrap;rounded=0;" parent="1" vertex="1">
          <mxGeometry x="410" y="885" width="60" height="30" as="geometry" />
        </mxCell>
        <mxCell id="IqUyDzDAsVlIOU5jjDd6-44" value="오현진" style="text;html=1;align=center;verticalAlign=middle;whiteSpace=wrap;rounded=0;" parent="1" vertex="1">
          <mxGeometry x="570" y="1005" width="60" height="30" as="geometry" />
        </mxCell>
        <mxCell id="IqUyDzDAsVlIOU5jjDd6-45" value="임준석" style="text;html=1;align=center;verticalAlign=middle;whiteSpace=wrap;rounded=0;" parent="1" vertex="1">
          <mxGeometry x="570" y="885" width="60" height="30" as="geometry" />
        </mxCell>
        <mxCell id="IqUyDzDAsVlIOU5jjDd6-46" value="천예찬" style="text;html=1;align=center;verticalAlign=middle;whiteSpace=wrap;rounded=0;" parent="1" vertex="1">
          <mxGeometry x="570" y="765" width="60" height="30" as="geometry" />
        </mxCell>
        <mxCell id="IqUyDzDAsVlIOU5jjDd6-47" value="이준혁" style="text;html=1;align=center;verticalAlign=middle;whiteSpace=wrap;rounded=0;" parent="1" vertex="1">
          <mxGeometry x="570" y="645" width="60" height="30" as="geometry" />
        </mxCell>
      </root>
    </mxGraphModel>
  </diagram>
</mxfile>
